<svg xmlns="http://www.w3.org/2000/svg" width="512" height="512"><path fill="#825FF2" stroke="#825FF2" d="M249.5 32h13l11 3Q287 40.5 295 51.5l8 17 1 18q-4.2 21.8-19.5 32.5l-17 8-18 1q-21.7-4.2-32.5-19.5l-8-17-1-18q4.3-21.7 19.5-32.5 8.9-6.6 22-9zm-176 64l1.5.5-1.5.5v-1zm12 0l1.5.5-1.5.5v-1zm-17 1v1-1zm23 0v1-1zm-29 2v1-1zm35 0v1-1zm-43 4v1-1zm51 0v1-1zm-54 2v1-1zm57 0v1-1zm-67 10v1-1zm77 0v1-1zm-79 3v1-1zm81 0v1-1zm-85 8v1-1zm89 0v1-1zm-91 6v1-1zm93 0v1-1zm-94 5l.5 1.5h-1l.5-1.5zm95 0l.5 1.5h-1l.5-1.5zm-95 12l.5 1.5h-1l.5-1.5zm95 0l.5 1.5h-1l.5-1.5zm-94 6v1-1zm93 0v1-1zm-91 6v1-1zm89 0v1-1zm-85 8v1-1zm81 0v1-1zm-79 3v1-1zm77 0v1-1zm-67 10v1-1zm57 0v1-1zm-54 2v1-1zm51 0v1-1zm-43 4v1-1zm35 0v1-1zm-29 2v1-1zm23 0v1-1zm-18 1l1.5.5-1.5.5v-1zm12 0l1.5.5-1.5.5v-1zm218 234v1-1zm0 13v1-1zm-76 32v1-1zm22 9v1-1zm13 0v1-1z"/><path fill="#1A1A1A" stroke="#1A1A1A" d="M246.5 16l5.5.5-5.5.5v-1zm14 0l5.5.5-5.5.5v-1zm-19 1l2.5.5-2.5.5v-1zm27 0l2.5.5-2.5.5v-1zm-31 1l2.5.5-2.5.5v-1zm35 0l2.5.5-2.5.5v-1zm-38 1l1.5.5-1.5.5v-1zm42 0l1.5.5-1.5.5v-1zm-44 1v1-1zm47 0v1-1zm-50 1l1.5.5-6.5 3.5 1-2 4-2zm52 0l6.5 3.5-1.5-.5-5-2v-1zm-59 4l-1 2-3 2 2-3 2-1zm67 0l4.5 3.5-2.5-1.5-2-2zm-73 4l-11 12 11-12zm79 0l11 12-11-12zm-91 13l-1.5 2.5-1.5 2.5.5-1.5 2.5-3.5zm103 0l3.5 4.5-2-1-1.5-3.5zm-107 6l-.5 1.5-2.5 5.5-.5-1.5 3.5-5.5zm111 0l3.5 6.5h-1l-2.5-6.5zm-115 8v1-1zm119 0v1-1zm-120 2l.5 1.5h-1l.5-1.5zm121 0l.5 1.5h-1l.5-1.5zm-122 3l.5 2.5h-1l.5-2.5zm123 0l.5 2.5h-1l.5-2.5zm-124 4l.5 2.5h-1l.5-2.5zm125 0l.5 2.5h-1l.5-2.5zm-126 5l.5 5.5h-1l.5-5.5zm127 0l.5 5.5h-1l.5-5.5zm-249 10l5.5.5-5.5.5v-1zm13 0l6.5.5-6.5.5v-1zm-18 1l2.5.5-2.5.5v-1zm27 0l2.5.5-2.5.5v-1zm-31 1l2.5.5-2.5.5v-1zm35 0l2.5.5-2.5.5v-1zm-38 1l1.5.5-1.5.5v-1zm42 0l1.5.5-1.5.5v-1zm219 0l.5 6.5h-1l.5-6.5zm-263 1v1-1zm47 0v1-1zm89 0l.5 5.5h-1l.5-5.5zm-139 1l1.5.5-6.5 3.5 1-2 4-2zm52 0l6.5 3.5-1.5-.5-5-2v-1zm-59 4l-1 2-3 2 2-3 2-1zm67 0l1 2-1-2zm3 2l1 2-1-2zm77 1l.5 3-2-.5 1.5-2.5zm125 0l.5 2.5h-1l.5-2.5zm-278 1l-11 12 11-12zm79 0l11 12-11-12zm70 2l1.5.5-1.5.5v-1zm-3 1l1.5.5-1.5.5v-1zm131 0l.5 1.5h-1l.5-1.5zm-133 1v1-1zm-3 1l1.5.5-1.5.5v-1zm-3 1l1.5.5-1.5.5v-1zm-3 1l1.5.5-1.5.5v-1zm141 0l.5 1.5-1.5 2.5-.5-1.5 1.5-2.5zm-143 1v1-1zm-3 1l1.5.5-1.5.5v-1zm-3 1l1.5.5-1.5.5v-1zm-3 1l1.5.5-3.5 1.5v-1l2-1zm150 1v1-1zm-286 1l-1.5 2.5-1.5 2.5.5-1.5 2.5-3.5zm103 0l1 2-1-2zm28 0l1.5.5-1.5.5v-1zm-3 1l1.5.5-1.5.5v-1zm157 0v1-1zm-160 1l1.5.5-3.5 1.5v-1l2-1zm-20 1l1 2-1-2zm64 0l2.5.5-2.5.5v-1zm115 0v1-1zm-164 1l1.5.5-1.5.5v-1zm46 0l1.5.5-3.5 1.5v-1l2-1zm-49 1l1.5.5-1.5.5v-1zm55 0v1-1zm111 0v1-1zm-287 1l-.5 1.5-2.5 5.5-.5-1.5 3.5-5.5zm111 0v1-1zm8 0v1-1zm46 0l1.5.5-1.5.5v-1zm-49 1l1.5.5-1.5.5v-1zm46 0l1.5.5-1.5.5v-1zm15 0l1 2-1-2zm109 0l-1 2 1-2zm-174 1l2.5.5-2.5.5v-1zm47 0l1.5.5-3.5 1.5v-1l2-1zm-5 2l1.5.5-1.5.5v-1zm25 0l1 2-1-2zm105 0l-1 2 1-2zm-133 1l1.5.5-1.5.5v-1zm-2 1v1-1zm-3 1l1.5.5-1.5.5v-1zm35 0l9.5 10.5h-1l-8.5-10.5zm101 0l86 87-86-87zm-286 1v1-1zm147 0l1.5.5-1.5.5v-1zm-3 1l1.5.5-1.5.5v-1zm-145 1l.5 1.5h-1l.5-1.5zm143 0v1-1zm-3 1l1.5.5-1.5.5v-1zm-3 1l1.5.5-1.5.5v-1zm-138 1l.5 2.5h-1l.5-2.5zm135 0l1.5.5-1.5.5v-1zm-2 1v1-1zm-3 1l1.5.5-1.5.5v-1zm-3 1l1.5.5-1.5.5v-1zm-128 1l.5 2.5h-1l.5-2.5zm124.5 0l2 .5-1.5 2.5-.5-3zm153.5 1l86 87-86-87zm-82 1l-1 2 1-2zm80 0l-1 2 1-2zm-3 2l-1 2 1-2zm-274 1l.5 5.5h-1l.5-5.5zm127 0l.5 5.5h-1l.5-5.5zm68 0l-1 2 1-2zm76 1v1-1zm-2 1v1-1zm-76 1l-1 2 1-2zm19 0l-1 2 1-2zm55 0v1-1zm-53 1v1-1zm51 0v1-1zm-49 1l1.5.5-1.5.5v-1zm46 0l1.5.5-3.5 1.5v-1l2-1zm-71 1l-1 2 1-2zm19 0l-1 2 1-2zm9 0v1-1zm3 1l1.5.5-1.5.5v-1zm34 0l1.5.5-1.5.5v-1zm-31 1l2.5.5-2.5.5v-1zm27 0l2.5.5-2.5.5v-1zm-63 1l-.5 1.5-1.5 2.5.5-1.5 1.5-2.5zm19 0l-1 2 1-2zm22 0l5.5.5-5.5.5v-1zm13 0l6.5.5-6.5.5v-1zm-37 3l-.5 1.5-1.5 2.5.5-1.5 1.5-2.5zm-79 1l.5 6.5h-1l.5-6.5zm-127 1l.5 5.5h-1l.5-5.5zm186 0l-1 2 1-2zm-2 3l-1 2 1-2zm19 0l-1 2 1-2zm-21 3l-1 2 1-2zm19 0l-1 2 1-2zm-200 2l.5 2.5h-1l.5-2.5zm125 0l.5 2.5h-1l.5-2.5zm54 1l-1 2 1-2zm19 0l-1 2 1-2zm-197 3l.5 2.5h-1l.5-2.5zm123 0l.5 1.5h-1l.5-1.5zm53 0l-.5 1.5-1.5 2.5.5-1.5 1.5-2.5zm19 0l-1 2 1-2zm-73 3l.5 2.5h-1l.5-2.5zm71 0l-.5 1.5-1.5 2.5.5-1.5 1.5-2.5zm-192 1l.5 1.5h-1l.5-1.5zm172 1l-1 2 1-2zm-49 1v1-1zm-122 1v1-1zm124 0v1-1zm2 1v1-1zm43 0l-1 2 1-2zm19 0l-1 2 1-2zm38 0l5.5.5-5.5.5v-1zm14 0l5.5.5-5.5.5v-1zm-239 1l3.5 6.5-2-1-1.5-5.5zm127 0v1-1zm93 0l2.5.5-2.5.5v-1zm27 0l2.5.5-2.5.5v-1zm-118 1v1-1zm87 0l2.5.5-2.5.5v-1zm35 0l2.5.5-2.5.5v-1zm-120 1v1-1zm35 0l-1 2 1-2zm19 0l-1 2 1-2zm28 0l1.5.5-1.5.5v-1zm42 0l1.5.5-1.5.5v-1zm-122 1v1-1zm78 0v1-1zm47 0v1-1zm-123 1v1-1zm73 0l1.5.5-6.5 3.5 1-2 4-2zm52 0l6.5 3.5-1.5-.5-5-2v-1zm-123 1v1-1zm27 0l-1 2 1-2zm19 0l-1 2 1-2zm-44 1v1-1zm2 1v1-1zm-137 1l3.5 4.5-3-2-.5-2.5zm139 0v1-1zm19 0l-.5 1.5-1.5 2.5.5-1.5 1.5-2.5zm19 0l-1 2 1-2zm20 0l-1 2 1-2zm67 0l4.5 3.5-2.5-1.5-2-2zm-123 1v1-1zm-33 1l-2 3 2-3zm35 0v1-1zm51 0l-1 2 1-2zm-84 1v1-1zm35 0v1-1zm30 0l-.5 1.5-1.5 2.5.5-1.5 1.5-2.5zm-63 1v1-1zm35 0v1-1zm44 0l-11 12 11-12zm79 0l11 12-11-12zm-156 1v1-1zm35 0v1-1zm6 0l-2 3 2-3zm-151 1l11 12-11-12zm101 0l-11 12 11-12zm11 0v1-1zm35 0v1-1zm-33 1v1-1zm2 1v1-1zm52 0l-1 2 1-2zm-50 1v1-1zm2 1v1-1zm2 1v1-1zm44 0l-1 2 1-2zm-42 1v1-1zm2 1v1-1zm2 1v1-1zm36 0l1 2-1-2zm-34 1v1-1zm263 0l6.5.5-6.5.5v-1zm14 0l5.5.5-5.5.5v-1zm-275 1v1-1zm35 0v1-1zm221 0l2.5.5-2.5.5v-1zm27 0l2.5.5-2.5.5v-1zm-281 1v1-1zm35 0v1-1zm6 0l-2 3 2-3zm103 0l3.5 4.5-2-1-1.5-3.5zm107 0l1.5.5-1.5.5v-1zm34 0l2.5.5-2.5.5v-1zm-406 1l4.5 3.5-1.5-.5-3-3zm123 0v1-1zm35 0v1-1zm210 0l1.5.5-3.5 1.5v-1l2-1zm42 0l1.5.5-1.5.5v-1zm-332 1v1-1zm47 0v1-1zm288 0v1-1zm-286 1v1-1zm237 0v1-1zm51 0l6.5 3.5-1.5-.5-5-2v-1zm-336 1l1 2-1-2zm283 0v1-1zm-356 1l6.5 3.5-1.5.5q-4.6-1.2-5-4zm121 0l-1 2 1-2zm233 0v1-1zm-91 1l3.5 6.5h-1l-2.5-6.5zm89 0v1-1zm-277 1v1-1zm275 0l-1 2 1-2zm67 0l4.5 3.5-2.5-1.5-2-2zm-360 1l2.5 3.5-2-1-.5-2.5zm62 0l-1 2 1-2zm-111 1v1-1zm46 0l1.5.5-3.5 1.5v-1l2-1zm22 0l1 2-1-2zm271 0l-1 2 1-2zm-337 1l1.5.5-1.5.5v-1zm3 1l2.5.5-2.5.5v-1zm35 0l2.5.5-2.5.5v-1zm69 0l-1 2 1-2zm19 0l1.5.5-2.5 1.5 1-2zm287 0l11 12-11-12zm-406 1l2.5.5-2.5.5v-1zm27 0l2.5.5-2.5.5v-1zm34 0v1-1zm61 0v1-1zm-117 1l5.5.5-5.5.5v-1zm14 0l5.5.5-5.5.5v-1zm24 0v1-1zm81 0v1-1zm-62 1l2.5 3.5-2-1-.5-2.5zm36 0l-1 2 1-2zm19 0l-1 2 1-2zm9 0v1-1zm124 0v1-1zm-206 1l1 2-1-2zm84 0v1-1zm2 1l.5 2.5h-1l.5-2.5zm121 0l.5 1.5h-1l.5-1.5zm-155 1l-.5 1.5-1.5 2.5.5-1.5 1.5-2.5zm19 0l-1 2 1-2zm-69 1v1-1zm19 1l2.5 3.5-2-1-.5-2.5zm187 0l.5 2.5h-1l.5-2.5zm-205 1l1 2-1-2zm66 0l-1 2 1-2zm16 0l.5 1.5h-1l.5-1.5zm-36 2l-1 2 1-2zm-44 1v1-1zm62 0l-.5 1.5-1.5 2.5.5-1.5 1.5-2.5zm17 0l.5 2.5h-1l.5-2.5zm125 0l.5 2.5h-1l.5-2.5zm-185 1l2.5 3.5-2-1-.5-2.5zm247 0l-1 2 1-2zm103 0l3.5 4.5-2-1-1.5-3.5zm-368 1l1 2-1-2zm41 0l-1 2 1-2zm222 2l-1 2 1-2zm-261 1v1-1zm37 0l-1 2 1-2zm19 0l-1 2 1-2zm19 0l.5 6.5h-1l.5-6.5zm127 0l.5 5.5h-1l.5-5.5zm-183 1l2.5 3.5-2-1-.5-2.5zm-18 1l1 2-1-2zm258 0v1-1zm111 0l3.5 6.5h-1l-2.5-6.5zm-335 1l-1 2 1-2zm19 0l-1 2 1-2zm204 1v1-1zm-255 1v1-1zm19 1v1-1zm11 0l-1 2 1-2zm19 0l-1 2 1-2zm205 0v1-1zm-253 1l2.5 3.5-2-1-.5-2.5zm19 1l1 2-1-2zm233 0v1-1zm-225 1l-.5 1.5-1.5 2.5.5-1.5 1.5-2.5zm19 0l-1 2 1-2zm153 1v1-1zm52 0l.5 1.5h-1l.5-1.5zm119 0v1-1zm-349 1v1-1zm182 0l3.5.5-3.5.5v-1zm-200 1l2.5 3.5-2-1-.5-2.5zm41 0v1-1zm166 0l4.5.5-4.5.5v-1zm161 0l.5 1.5h-1l.5-1.5zm-349 1l2.5 1.5-1.5.5-1-2zm49 0l.5 6.5h-1l.5-6.5zm146 0l4.5.5-4.5.5v-1zm33 0v1-1zm-207 1l-1 2 1-2zm181 0l4.5.5-4.5.5v-1zm8 1l3.5.5-3.5.5v-1zm140 0l.5 2.5h-1l.5-2.5zm-133 1l4.5.5-4.5.5v-1zm10 0l.5 2-4-.5 3.5-1.5zm-243 1l2.5 3.5-2-1-.5-2.5zm35 0l-1 2 1-2zm332 2l.5 2.5h-1l.5-2.5zm-334 1l-1 2 1-2zm-30 2v1-1zm63 0l.5 2.5h-1l.5-2.5zm-35 1l-1 2 1-2zm-27 1l1 2-1-2zm364 0l.5 5.5h-1l.5-5.5zm-339 2l-1 2 1-2zm38 0l.5 2.5h-1l.5-2.5zm122.5 0l4 .5-3.5 1.5-.5-2zm-183.5 1v1-1zm190 0l4.5.5-4.5.5v-1zm8 1l3.5.5-3.5.5v-1zm-197 1v1-1zm20 0v1-1zm162 0l.5 1.5h-1l.5-1.5zm22 0l4.5.5-4.5.5v-1zm-143 1l.5 1.5h-1l.5-1.5zm150 0l4.5.5-4.5.5v-1zm-211 1l-1 2 1-2zm20 0v1-1zm198 0l4.5.5-4.5.5v-1zm-37 1l.5 1.5h-1l.5-1.5zm45 0l3.5.5-3.5.5v-1zm-205 1l2.5 3.5-2-1-.5-2.5zm41 0v1-1zm171 0v1-1zm-235 1l-1 2 1-2zm65 1v1-1zm117 0v1-1zm-184 2l-1 2 1-2zm68 0l1.5 2.5-2-1 .5-1.5zm115 0v1-1zm55 0l.5 6.5h-1l.5-6.5zm-210 1v1-1zm337 0l.5 5.5h-1l.5-5.5zm-183 1v1-1zm-184 1l-1 2 1-2zm31 0l1 2-1-2zm41 1v1-1zm111 0v1-1zm-185 2l-.5 1.5-1.5 2.5.5-1.5 1.5-2.5zm35 0v1-1zm40 0l1 2-1-2zm109 0l-1 2 1-2zm-148 2l1 2-1-2zm-19 1l2.5 1.5-1.5-.5q-2.2-.7-1.5 1.5l-2 1 2.5-3.5zm60 0l1 2-1-2zm105 0l-1 2 1-2zm61 0l.5 2.5h-1l.5-2.5zm125 0l.5 2.5h-1l.5-2.5zm-371 2l-1 2 1-2zm41 0v1-1zm-18 1l2.5 3.5-2-1-.5-2.5zm59 0l11 12-11-12zm-40 1l1 2-1-2zm140 0l-10 11 10-11zm65 0l.5 1.5h-1l.5-1.5zm123 0l.5 2.5h-1l.5-2.5zm-372 1l-1 2 1-2zm19 0l-1 2 1-2zm27 2v1-1zm-48 1l-1 2 1-2zm19 0l-1 2 1-2zm11 0v1-1zm222 0l.5 1.5h-1l.5-1.5zm121 0l.5 1.5h-1l.5-1.5zm-324 1l2.5 3.5-2-1-.5-2.5zm-18 1l1 2-1-2zm-33 1l-1 2 1-2zm19 0l-1 2 1-2zm236 0v1-1zm119 0v1-1zm-339 2v1-1zm221 0l2.5 4.5-2-1-.5-3.5zm117 0l.5 1.5-3.5 5.5.5-1.5 2.5-5.5zm-375 1l-.5 1.5-1.5 2.5.5-1.5 1.5-2.5zm19 0l-1 2 1-2zm37 0l2.5 3.5-2-1-.5-2.5zm-18 1l1 2-1-2zm65 0l1 2-1-2zm75 0l-1 2 1-2zm-161 2l-.5 1.5-1.5 2.5.5-1.5 1.5-2.5zm89 0l1 2-1-2zm69 0l-1 2 1-2zm-135 1v1-1zm-43 1l-1 2 1-2zm62 0l2.5 3.5-2-1-.5-2.5zm50 0v1-1zm63 0v1-1zm89 0v1-1zm-306 1l5.5.5-5.5.5v-1zm14 0l5.5.5-5.5.5v-1zm72 0l1 2-1-2zm70 0v1-1zm59 0v1-1zm-220 1l2.5.5-2.5.5v-1zm27 0l2.5.5-2.5.5v-1zm136 0v1-1zm55 0v1-1zm94 0l1 2-1-2zm109 0l-.5 1.5-2.5 3.5 1.5-2.5 1.5-2.5zm-425 1l2.5.5-2.5.5v-1zm35 0l1.5.5-1.5.5v-1zm14 0l-1 2 1-2zm19 0l-1 2 1-2zm101 0v1-1zm51 0v1-1zm-223 1l1.5.5-1.5.5v-1zm42 0v1-1zm58 0v1-1zm74 0l1.5.5-1.5.5v-1zm46 0l1.5.5-1.5.5v-1zm-222 1v1-1zm46 0l1.5.5-1.5.5v-1zm75 0l2.5 3.5-2-1-.5-2.5zm58 0v1-1zm40 0l1.5.5-1.5.5v-1zm104 0l1 2-1-2zm-326 1l1.5.5-6.5 3.5 1-2 4-2zm52 0v1-1zm3 0l-1 2 1-2zm19 0l-1 2 1-2zm32 0l1 2-1-2zm79 0l1.5.5-1.5.5v-1zm34 0l1.5.5-1.5.5v-1zm-31 1l3.5.5-3.5.5v-1zm26 0l3.5.5-3.5.5v-1zm-20 1v1-1zm17 0v1-1zm117 0l1.5 1.5-14.5 14.5 13.5-14.5-.5-1.5zm101 0l-11 12 11-12zm-357 1l-1 2 1-2zm36 0v1-1zm-115 1l-1 2-3 2 2-3 2-1zm134 0v1-1zm-18 1l2.5 3.5-2-1-.5-2.5zm-39 1l-1 2 1-2zm58 0l1 2-1-2zm-141 2l-11 12 11-12zm81 1l9.5 10.5-10-9 .5-1.5zm62 0v1-1zm-18 1l2.5 3.5-2-1-.5-2.5zm19 1l1 2-1-2zm2 3v1-1zm207 0l2.5 1.5-1.5-.5-4 3 3-4zm76 0l-2 3-2 1 1-2 3-2zm-301 1l2.5 3.5-2-1-.5-2.5zm19 1l1 2-1-2zm210 0l1 2-1-2zm3 2v1-1zm63 0l-1 2-5 2v-1l6-3zm-274 1v1-1zm213 0v1-1zm-231 1v1-1zm233 0v1-1zm-376 1l-1.5 2.5-1.5 2.5.5-1.5 2.5-3.5zm103 0l1 2-1-2zm59 0l2.5 3.5-2-1-.5-2.5zm216 0v1-1zm-234 1l1 2-1-2zm236 0l1.5.5-1.5.5v-1zm47 0v1-1zm-92 1l-17 18 17-18zm22 0l-17 18 17-18zm26 0v1-1zm41 0l1.5.5-1.5.5v-1zm-319 1l1 2-1-2zm281 0l1.5.5-1.5.5v-1zm34 0l2.5.5-2.5.5v-1zm-274 1v1-1zm243 0l2.5.5-2.5.5v-1zm27 0l2.5.5-2.5.5v-1zm-251 1l2.5 3.5-2-1-.5-2.5zm229 0l6.5.5-6.5.5v-1zm14 0l5.5.5-5.5.5v-1zm-412 1l-.5 1.5-2.5 5.5-.5-1.5 3.5-5.5zm111 0l2.5 4.5h-1l-1.5-4.5zm40 0l1 2-1-2zm2 3v1-1zm19 1l2.5 3.5-2-1-.5-2.5zm-18 1l1 2-1-2zm-40 1v1-1zm-118 2v1-1zm119 0v1-1zm41 0v1-1zm19 1v1-1zm-180 1l.5 1.5h-1l.5-1.5zm121 0l.5 1.5h-1l.5-1.5zm41 0l2.5 3.5-2-1-.5-2.5zm19 1l1 2-1-2zm-182 2l.5 2.5h-1l.5-2.5zm123 0l.5 2.5h-1l.5-2.5zm61 1v1-1zm-18 1l2.5 3.5-2-1-.5-2.5zm19 1l1 2-1-2zm-186 1l.5 2.5h-1l.5-2.5zm125 0l.5 2.5h-1l.5-2.5zm200 1l-18 19 18-19zm22 0l-18 19 18-19zm-159 1v1-1zm-18 1l2.5 3.5-2-1-.5-2.5zm19 1l1 2-1-2zm-190 1l.5 5.5h-1l.5-5.5zm127 0l.5 5.5h-1l.5-5.5zm65 2v1-1zm-18 1l2.5 3.5-2-1-.5-2.5zm19 1l2.5 3.5-2-1-.5-2.5zm-16 4v1-1zm19 1l2.5 3.5-2-1-.5-2.5zm-18 1l1 2-1-2zm-51 3l.5 6.5h-1l.5-6.5zm53 0v1-1zm-180 1l.5 5.5h-1l.5-5.5zm199 0l2.5 3.5-2-1-.5-2.5zm-18 1l1 2-1-2zm2 3v1-1zm19 1l2.5 3.5-2-1-.5-2.5zm102 0l-18 19 18-19zm-120 1l1 2-1-2zm141 0l-17 18 17-18zm-324 2l.5 2.5h-1l.5-2.5zm125 0l.5 2.5h-1l.5-2.5zm60 1v1-1zm19 1v1-1zm-18 1l2.5 3.5-2-1-.5-2.5zm-185 1l.5 2.5h-1l.5-2.5zm123 0l.5 1.5h-1l.5-1.5zm81 0l1 2-1-2zm25 0v1-1zm17 0v1-1zm-23 1l3.5.5-3.5.5v-1zm27 0l2.5.5-2.5.5v-1zm-30 1l1.5.5-1.5.5v-1zm34 0l1.5.5-1.5.5v-1zm-132 1l.5 2.5h-1l.5-2.5zm84 0v1-1zm11 0l1.5.5-1.5.5v-1zm41 0l3.5 1.5-1.5.5-2-2zm-257 1l.5 1.5h-1l.5-1.5zm187 0l2.5 3.5-2-1-.5-2.5zm26 0l1.5.5-1.5.5v-1zm-7 1l1 2-1-2zm5 0v1-1zm51 0v1-1zm-139 1v1-1zm86 0v1-1zm55 0v1-1zm-263 1v1-1zm124 0v1-1zm141 0v1-1zm-139 1v1-1zm141 0v1-1zm-266 1l3.5 6.5-2-1-1.5-5.5zm127 0v1-1zm61 0l2.5 3.5-2-1-.5-2.5zm80 0l1 2-1-2zm-139 1v1-1zm2 1v1-1zm140 0l1 2-1-2zm-138 1v1-1zm2 1v1-1zm139 0l2 3-2-3zm-137 1v1-1zm54 0v1-1zm-52 1v1-1zm2 1v1-1zm51 0l-8 9 8-9zm-188 1l3.5 4.5-3-2-.5-2.5zm139 0v1-1zm155 0l-9.5 10.5 1 3-2-1v-2l10.5-10.5zm-153 1v1-1zm-33 1l-2 3 2-3zm35 0v1-1zm-33 1v1-1zm35 0v1-1zm-33 1v1-1zm35 0v1-1zm-33 1v1-1zm35 0v1-1zm-145 1l11 12-11-12zm101 0l-11 12 11-12zm11 0v1-1zm35 0v1-1zm-33 1v1-1zm35 0v1-1zm-33 1v1-1zm35 0v1-1zm-33 1v1-1zm35 0v1-1zm22 0l-1 2 1-2zm-55 1v1-1zm35 0v1-1zm-33 1v1-1zm35 0v1-1zm-33 1v1-1zm35 0v1-1zm14 0l-1 2 1-2zm-47 1v1-1zm35 0v1-1zm-33 1l36.5 18-.5 3-2-3-33-16-1-2zm35 0v1-1zm2 1v1-1zm6 0v1-1zm111 0v1-1zm-115 1v1-1zm2 1l1.5.5-1.5.5v-1zm114 0l1.5 2.5h-1l-.5-2.5zm-270 1l4.5 3.5-1.5-.5-3-3zm75 0l-1 2 1-2zm-3 2l-1 2 1-2zm200 1v1-1zm-266 1l6.5 3.5-1.5.5q-4.6-1.2-5-4zm63 0l-1 2-5 2v-1l6-3zm204 1v1-1zm1 2l.5 1.5h-1l.5-1.5zm-260 1v1-1zm47 0v1-1zm-45 1l1.5.5-1.5.5v-1zm42 0l1.5.5-1.5.5v-1zm-39 1l2.5.5-2.5.5v-1zm35 0l2.5.5-2.5.5v-1zm221 0l.5 2.5h-1l.5-2.5zm-252 1l2.5.5-2.5.5v-1zm27 0l2.5.5-2.5.5v-1zm-22 1l5.5.5-5.5.5v-1zm13 0l6.5.5-6.5.5v-1zm235 2l.5 2.5h-1l.5-2.5zm-126 5l.5 5.5h-1l.5-5.5zm127 0l.5 6.5h-1l.5-6.5zm-127 14l.5 5.5h-1l.5-5.5zm127 0l.5 5.5h-1l.5-5.5zm-126 8l.5 2.5h-1l.5-2.5zm125 0l.5 2.5h-1l.5-2.5zm-124 4l.5 2.5h-1l.5-2.5zm123 0l.5 2.5h-1l.5-2.5zm-122 4l.5 1.5h-1l.5-1.5zm121 0l.5 1.5h-1l.5-1.5zm-120 3v1-1zm119 0v1-1zm-118 2l3.5 6.5-2-1-1.5-5.5zm117 0l.5 1.5-3.5 5.5.5-1.5 2.5-5.5zm-113 8l3.5 4.5-3-2-.5-2.5zm109 0l-.5 1.5-2.5 3.5 1.5-2.5 1.5-2.5zm-105 6l11 12-11-12zm101 0l-11 12 11-12zm-88 12l4.5 3.5-1.5-.5-3-3zm75 0l-2 3-2 1 1-2 3-2zm-69 4l6.5 3.5-1.5.5q-4.6-1.2-5-4zm63 0l-1 2-5 2v-1l6-3zm-55 4v1-1zm47 0v1-1zm-45 1l1.5.5-1.5.5v-1zm42 0l1.5.5-1.5.5v-1zm-39 1l2.5.5-2.5.5v-1zm35 0l2.5.5-2.5.5v-1zm-31 1l2.5.5-2.5.5v-1zm27 0l2.5.5-2.5.5v-1zm-22 1l5.5.5-5.5.5v-1zm14 0l5.5.5-5.5.5v-1z" opacity=".737"/><path fill="#6AB4E5" stroke="#6AB4E5" d="M75.5 96h9l15 4q11.3 5.2 18.5 14.5l8 15 2 10v9l-2 10-4 9-12.5 14.5-15 8-10 2h-9l-10-2-9-4L42 173.5l-8-15-2-10v-9l2-10 4-9L50.5 106l10-6 15-4zm174 288h13l11 3q13.5 5.5 21.5 16.5l8 17 1 17q-3.9 22.6-19.5 33.5l-17 8-17 1q-22.6-3.9-33.5-19.5l-8-17-1-18q4.3-21.7 19.5-32.5 8.9-6.6 22-9z"/><path fill="#1A1A1A" stroke="#1A1A1A" d="M252.5 16l2.5.5-2.5.5v-1zm5 0l2.5.5-2.5.5v-1zm-13 1v1-1zm23 0v1-1zm-31 2v1-1zm39 0v1-1zm-42 1v1-1zm45 0v1-1zm-47 1v1-1zm49 0v1-1zm-55 3v1-1zm-2 1v1-1zm65 0v1-1zm-68 2v1-1zm71 0v1-1zm-74 2l-1 2 1-2zm77 0l1 2-1-2zm-88 11l-1 2 1-2zm99 0l1 2-1-2zm-102 4v1-1zm105 0v1-1zm-107 3v1-1zm109 0v1-1zm-113 8v1-1zm117 0v1-1zm-118 2v1-1zm119 0v1-1zm-120 3v1-1zm121 0v1-1zm-123 8v1-1zm125 0v1-1zm-126 8l.5 7.5h-1l.5-7.5zm127 0l.5 6.5h-1l.5-6.5zm-243 4l2.5.5-2.5.5v-1zm4 0l2.5.5-2.5.5v-1zm-12 1v1-1zm23 0v1-1zm4 1v1-1zm-35 1v1-1zm39 0v1-1zm-42 1v1-1zm45 0v1-1zm-47 1v1-1zm49 0v1-1zm-55 3v1-1zm61 0v1-1zm-63 1v1-1zm65 0v1-1zm-68 2v1-1zm71 0v1-1zm78 0v1-1zm125 0v1-1zm-277 2l-1 2 1-2zm77 0l1 2-1-2zm73 2v1-1zm126 0v1-1zm-129 1v1-1zm-3 1v1-1zm-5 2v1-1zm136 0v1-1zm-139 1v1-1zm-3 1v1-1zm-5 2v1-1zm-139 1l-1 2 1-2zm99 0l1 2-1-2zm37 0v1-1zm148 0v1-1zm-1 2v1-1zm-155 1v1-1zm-131 1v1-1zm105 0v1-1zm23 0v1-1zm157 0v1-1zm-116 1v1-1zm-46 1v1-1zm50 0v1-1zm111 0v1-1zm-286 1v1-1zm109 0v1-1zm13 0v1-1zm44 0v1-1zm-47 1v1-1zm44 0v1-1zm13 0v1-1zm109 0v1-1zm-175 1v1-1zm50 0v1-1zm-46 1v1-1zm41 1v1-1zm23 0v1-1zm105 0v1-1zm-131 1v1-1zm-5 2v1-1zm33 0l1 2-1-2zm101 0v1-1zm-285 1v1-1zm148 0v1-1zm-3 1v1-1zm-146 1v1-1zm141 1v1-1zm-3 1v1-1zm-139 1v1-1zm136 0v1-1zm-5 2v1-1zm-3 1v1-1zm-3 1v1-1zm70 2v1-1zm80 0v1-1zm-277 2v1-1zm125 0v1-1zm149 0v1-1zm-79 1v1-1zm76 1v1-1zm-2 1v1-1zm-76 1v1-1zm74 0v1-1zm-55 1v1-1zm53 0v1-1zm-51 1v1-1zm49 0v1-1zm-72 1v1-1zm18 0v1-1zm-210 1l.5 7.5h-1l.5-7.5zm127 0l.5 6.5h-1l.5-6.5zm93 0v1-1zm39 0v1-1zm-35 1v1-1zm31 0v1-1zm-65 1v1-1zm18 0v1-1zm20 0v1-1zm23 0v1-1zm-15 1l2.5.5-2.5.5v-1zm4 0l2.5.5-2.5.5v-1zm-51 1v1-1zm17 1v1-1zm-19 2v1-1zm17 1v1-1zm-19 2v1-1zm18 0v1-1zm-20 3v1-1zm18 0v1-1zm-200 2v1-1zm125 0v1-1zm55 1v1-1zm18 0v1-1zm-74 3v1-1zm54 0v1-1zm18 0v1-1zm-19 2v1-1zm17 1v1-1zm-192 1v1-1zm173 1v1-1zm17 1v1-1zm-189 1v1-1zm170 1v1-1zm18 0v1-1zm-187 1v1-1zm231 0l2.5.5-2.5.5v-1zm5 0l2.5.5-2.5.5v-1zm-13 1v1-1zm23 0v1-1zm-79 1v1-1zm18 0v1-1zm30 1v1-1zm39 0v1-1zm-42 1v1-1zm45 0v1-1zm-92 1v1-1zm18 0v1-1zm27 0v1-1zm49 0v1-1zm-255 3v1-1zm159 0v1-1zm18 0v1-1zm-39 1v1-1zm60 0v1-1zm65 0v1-1zm-123 1v1-1zm18 0v1-1zm-156 1v1-1zm105 0v1-1zm2 0v1-1zm33 0v1-1zm33 0v1-1zm20 0v1-1zm71 0v1-1zm-155 1v1-1zm2 1v1-1zm43 0v1-1zm36 0l-1 2 1-2zm77 0l1 2-1-2zm-265 1l1 2-1-2zm101 0l-1 2 1-2zm10 0v1-1zm33 0v1-1zm25 0v1-1zm-56 1v1-1zm33 0v1-1zm-31 1v1-1zm33 0v1-1zm2 0v1-1zm18 0v1-1zm-51 1v1-1zm2 1v1-1zm2 1v1-1zm45 0v1-1zm-43 1v1-1zm2 1v1-1zm2 1v1-1zm37 0v1-1zm-35 1v1-1zm2 1v1-1zm33 0v1-1zm13 0l-1 2 1-2zm99 0l1 2-1-2zm124 0l2.5.5-2.5.5v-1zm4 0l2.5.5-2.5.5v-1zm-393 1l1 2-1-2zm79 0v1-1zm43 0v1-1zm33 0v1-1zm225 0v1-1zm23 0v1-1zm-279 1v1-1zm33 0v1-1zm-78 1v1-1zm47 0v1-1zm33 0v1-1zm213 0v1-1zm39 0v1-1zm-407 1v1-1zm124 0v1-1zm33 0v1-1zm2 0v1-1zm105 0v1-1zm146 0v1-1zm-334 1v1-1zm50 0l.5 1.5h-1l.5-1.5zm237 0v1-1zm49 0v1-1zm-409 1v1-1zm358 0v1-1zm-95 1v1-1zm93 0v1-1zm-281 1v1-1zm279 0v1-1zm-233 1v1-1zm231 0v1-1zm65 0v1-1zm-409 1v1-1zm49 0v1-1zm19 0v1-1zm-66 1v1-1zm339 0v1-1zm71 0v1-1zm-407 1v1-1zm39 0v1-1zm67 0v1-1zm-71 1v1-1zm30 0v1-1zm61 0v1-1zm207 0v1-1zm77 0l1 2-1-2zm-402 1v1-1zm23 0v1-1zm17 0v1-1zm80 0v1-1zm-112 1l2.5.5-2.5.5v-1zm5 0l2.5.5-2.5.5v-1zm45 0v1-1zm38 0v1-1zm18 0v1-1zm8 0v1-1zm124 0v1-1zm-205 1v1-1zm83 0v1-1zm2 1v1-1zm121 0v1-1zm-153 1v1-1zm18 0v1-1zm-69 1v1-1zm18 1v1-1zm32 0v1-1zm155 0v1-1zm-204 1v1-1zm66 0v1-1zm-19 2v1-1zm-45 1v1-1zm62 0v1-1zm18 0v1-1zm123 0v1-1zm164 0l1 2-1-2zm-349 1v1-1zm249 0v1-1zm-266 1v1-1zm42 0v1-1zm-24 1v1-1zm41 0v1-1zm19 1v1-1zm125 0v1-1zm61 0v1-1zm105 0v1-1zm-367 1v1-1zm38 0v1-1zm18 0v1-1zm-38 1v1-1zm-17 1v1-1zm259 0v1-1zm109 0v1-1zm-350 1v1-1zm17 0v1-1zm18 0v1-1zm205 1v1-1zm-256 1v1-1zm18 1v1-1zm13 0v1-1zm18 0v1-1zm206 0v1-1zm-254 1v1-1zm198 0l.5 4.5h-1l.5-4.5zm-180 1v1-1zm11 0l-1 2 1-2zm42 0l.5 5.5h-1l.5-5.5zm182 0v1-1zm-207 1v1-1zm-44 1v1-1zm250 0v1-1zm117 0v1-1zm-349 1v1-1zm7 0v1-1zm-24 1v1-1zm41 0v1-1zm157 0l1.5.5-1.5.5v-1zm169 0v1-1zm-349 1v1-1zm188 0v1-1zm-184 1v1-1zm18 0l-1 2 1-2zm173 0v1-1zm7 1v1-1zm27 0v1-1zm121 0v1-1zm-348 1v1-1zm208 0v1-1zm-225 1v1-1zm35 0v1-1zm197 0v1-1zm7 1v1-1zm-206 2v1-1zm-30 2v1-1zm63 0v1-1zm-35 1v1-1zm336 0v1-1zm-363 1v1-1zm25 2v1-1zm38 0v1-1zm-61 1v1-1zm188 0v1-1zm7 1v1-1zm-194 1v1-1zm20 0v1-1zm181 0v1-1zm-140 1v1-1zm148 0v1-1zm-208 1v1-1zm18 0v1-1zm197 0v1-1zm145 0l.5 7.5h-1l.5-7.5zm-138 1v1-1zm-203 1v1-1zm42 0v1-1zm168 0l1.5.5-1.5.5v-1zm-231 1v1-1zm235 0l.5 3.5h-1l.5-3.5zm-213 1v1-1zm42 0v1-1zm117 0v1-1zm-183 2v1-1zm182 0v1-1zm-156 1v1-1zm155 1v1-1zm-183 1v1-1zm29 0v1-1zm42 1v1-1zm111 0v1-1zm-184 2v1-1zm33 0v1-1zm41 0v1-1zm109 0v1-1zm-184 2v1-1zm35 0v1-1zm-18 1l1.5.5-1.5.5v-1zm60 0v1-1zm105 0v1-1zm61 0v1-1zm125 0v1-1zm-370 2v1-1zm39 0v1-1zm-22 1v1-1zm5 0v1-1zm59 0l1 2-1-2zm101 0l-1 2 1-2zm-142 1v1-1zm206 0v1-1zm123 0v1-1zm-371 1v1-1zm18 0v1-1zm26 2v1-1zm-46 1v1-1zm18 0v1-1zm11 0v1-1zm222 0v1-1zm121 0v1-1zm-325 1v1-1zm-17 1v1-1zm-32 1v1-1zm18 0v1-1zm236 0v1-1zm119 0v1-1zm-339 2v1-1zm221 0v1-1zm117 0v1-1zm-374 1v1-1zm18 0v1-1zm36 0v1-1zm46 0l1 2-1-2zm79 0l-1 2 1-2zm-142 1v1-1zm-38 1v1-1zm17 1v1-1zm88 0v1-1zm71 0v1-1zm-136 1v1-1zm-42 1v1-1zm60 0v1-1zm50 0v1-1zm65 0v1-1zm88 0v1-1zm111 0v1-1zm-357 1v1-1zm26 0v1-1zm69 0v1-1zm61 0v1-1zm-210 1l2.5.5-2.5.5v-1zm5 0l2.5.5-2.5.5v-1zm93 0v1-1zm53 0v1-1zm57 0v1-1zm93 0v1-1zm109 0v1-1zm-418 1v1-1zm23 0v1-1zm20 0v1-1zm18 0v1-1zm100 0v1-1zm53 0v1-1zm-187 1v1-1zm63 0v1-1zm73 0v1-1zm49 0v1-1zm-220 1v1-1zm39 0v1-1zm77 0v1-1zm203 0v1-1zm105 0v1-1zm-427 1v1-1zm52 0v1-1zm18 0v1-1zm32 0v1-1zm77 0v1-1zm-181 1v1-1zm49 0v1-1zm73 0v1-1zm63 0v1-1zm31 0v1-1zm-165 1v1-1zm139 0v1-1zm21 0v1-1zm115 0l1 2-1-2zm101 0l-1 2 1-2zm-357 1v1-1zm36 0v1-1zm18 1v1-1zm-132 1v1-1zm115 0v1-1zm-39 1v1-1zm57 0v1-1zm-136 1v1-1zm120 1v1-1zm-123 1l-1 2 1-2zm80 0v1-1zm61 0v1-1zm-17 1v1-1zm18 1v1-1zm288 2l-1 2 1-2zm-286 1v1-1zm188 0l-9 10 9-10zm-205 1v1-1zm18 1v1-1zm210 0v1-1zm71 0v1-1zm-68 2v1-1zm65 0v1-1zm-276 1v1-1zm201 0l-9 10 9-10zm12 0v1-1zm-371 1l-1 2 1-2zm99 0l1 2-1-2zm42 0v1-1zm18 1v1-1zm216 0v1-1zm-233 1v1-1zm235 0v1-1zm49 0v1-1zm-2 1v1-1zm-427 1v1-1zm105 0v1-1zm280 0v1-1zm39 0v1-1zm-277 1v1-1zm242 0v1-1zm-224 1v1-1zm228 0v1-1zm23 0v1-1zm-418 1v1-1zm109 0v1-1zm41 0v1-1zm254 0l2.5.5-2.5.5v-1zm4 0l2.5.5-2.5.5v-1zm-298 2v1-1zm42 1v1-1zm18 1v1-1zm-17 1v1-1zm18 1v1-1zm-175 2v1-1zm117 0v1-1zm42 0v1-1zm18 1v1-1zm-178 1v1-1zm119 0v1-1zm42 0v1-1zm170 0l-8 9 8-9zm-152 1v1-1zm-180 2v1-1zm121 0v1-1zm43 0v1-1zm18 1v1-1zm-17 1v1-1zm183 0l-9 10 9-10zm-165 1v1-1zm-61 1v1-1zm63 2v1-1zm-17 1v1-1zm-170 1v1-1zm125 0v1-1zm63 0v1-1zm2 3v1-1zm-17 1v1-1zm18 1v1-1zm-192 3l.5 7.5h-1l.5-7.5zm127 0l.5 6.5h-1l.5-6.5zm50 1v1-1zm18 1v1-1zm-17 1v1-1zm136 0l-9 10 9-10zm-134 3v1-1zm18 1v1-1zm-17 1v1-1zm18 1v1-1zm130 0l-9 10 9-10zm-146 2v1-1zm18 1v1-1zm-17 1v1-1zm18 1v1-1zm-201 1v1-1zm125 0v1-1zm60 1v1-1zm18 1v1-1zm-17 1v1-1zm-62 1v1-1zm80 0v1-1zm-16 2v1-1zm40 0v1-1zm21 0l1.5.5-1.5.5v-1zm-43 1v1-1zm17 0v1-1zm31 0v1-1zm-252 1v1-1zm187 0v1-1zm69 0v1-1zm-51 1v1-1zm7 1v1-1zm49 0v1-1zm-260 1v1-1zm121 0v1-1zm88 0v1-1zm53 0v1-1zm26 0l-10 11 10-11zm-165 1v1-1zm83 0v1-1zm58 0v1-1zm-263 1v1-1zm124 0v1-1zm64 0v1-1zm77 0v1-1zm2 1v1-1zm-139 1v1-1zm2 1v1-1zm140 0v1-1zm32 1l-9 10 9-10zm-168 1v1-1zm57 0v1-1zm82 0l1 2-1-2zm-137 1v1-1zm56 1v1-1zm-188 1v1-1zm136 0v1-1zm2 1v1-1zm2 1v1-1zm-138 1v1-1zm105 0v1-1zm2 0v1-1zm33 0v1-1zm2 1v1-1zm2 1v1-1zm-142 1l1 2-1-2zm101 0l-1 2 1-2zm43 0v1-1zm2 1v1-1zm2 1v1-1zm29 0l-1 2 1-2zm-27 1v1-1zm2 1v1-1zm-31 1v1-1zm33 0v1-1zm2 1v1-1zm18 0v1-1zm-16 1v1-1zm2 1v1-1zm2 1v1-1zm10 0v1-1zm109 0v1-1zm-117 1v1-1zm-153 1l1 2-1-2zm79 0l-1 2 1-2zm76 0v1-1zm5 0v1-1zm111 0v1-1zm-114 1v1-1zm-153 2v1-1zm71 0v1-1zm-68 2v1-1zm65 0v1-1zm-63 1v1-1zm265 0v1-1zm1 2v1-1zm-260 1v1-1zm49 0v1-1zm-47 1v1-1zm45 0v1-1zm-42 1v1-1zm39 0v1-1zm217 0v1-1zm-248 2v1-1zm23 0v1-1zm-15 1l2.5.5-2.5.5v-1zm5 0l1.5.5-1.5.5v-1zm236 1v1-1zm-124 4v1-1zm125 0v1-1zm-126 8l.5 7.5h-1l.5-7.5zm127 1l.5 6.5h-1l.5-6.5zm-126 14v1-1zm125 0v1-1zm-1 4v1-1zm-122 4v1-1zm121 0v1-1zm-120 3v1-1zm119 0v1-1zm-118 2v1-1zm117 0v1-1zm-3 6v1-1zm-110 2v1-1zm109 0v1-1zm-107 3v1-1zm105 0v1-1zm-103 3l1 2-1-2zm101 0l-1 2 1-2zm-90 11l1 2-1-2zm79 0l-1 2 1-2zm-75 3v1-1zm71 0v1-1zm-68 2v1-1zm65 0v1-1zm-63 1v1-1zm6 3v1-1zm49 0v1-1zm-47 1v1-1zm45 0v1-1zm-42 1v1-1zm39 0v1-1zm-31 2v1-1zm23 0v1-1zm-15 1l2.5.5-2.5.5v-1zm5 0l2.5.5-2.5.5v-1z" opacity=".996"/><path fill="#D9535A" stroke="#D9535A" d="M249.5 184h13l11 3q13.5 5.5 21.5 16.5l8 17 1 18q-4.2 21.8-19.5 32.5l-17 8-18 1q-21.7-4.2-32.5-19.5l-8-17-1-18q4.3-21.7 19.5-32.5 8.9-6.6 22-9zm167 26v1-1zm31 0v1-1zm-38 3v1-1zm-20 20v1-1zm-3 7v1-1zm93 9v1-1zm0 13v1-1zm-93 9v1-1zm39 32v1-1zm13 0v1-1zm-374 3v1-1zm31 0v1-1zm-38 3v1-1zm-20 20v1-1zm-3 7v1-1zm93 9v1-1zm0 13v1-1zm-93 9v1-1zm39 32v1-1zm13 0v1-1zm124 17v1-1z"/><path fill="#DAC33B" stroke="#DAC33B" d="M425.5 208l5.5.5-5.5.5v-1zm8 0l5.5.5-5.5.5v-1zm-13 1l1.5.5-1.5.5v-1zm22 0l1.5.5-1.5.5v-1zm-25 1v1-1zm29 0v1-1zm-32 1v1-1zm35 0v1-1zm-37 1v1-1zm39 0v1-1zm-41 1v1-1zm43 0v1-1zm-45 1v1-1zm47 0v1-1zm-49 1l-1 2 1-2zm51 0l1 2-1-2zm-54 2l-2 3 2-3zm57 0l2 3-2-3zm-65 8l-2 3 2-3zm73 0l2 3-2-3zm-76 4l-1 2 1-2zm79 0l1 2-1-2zm-81 3v1-1zm83 0v1-1zm-84 2v1-1zm85 0v1-1zm-86 2v1-1zm87 0v1-1zm-88 2v1-1zm89 0v1-1zm-90 3v1-1zm91 0v1-1zm-92 3l.5 1.5h-1l.5-1.5zm93 0l.5 1.5h-1l.5-1.5zm-94 5l.5 5.5h-1l.5-5.5zm95 1l.5 4.5h-1l.5-4.5zm-95 7l.5 5.5h-1l.5-5.5zm95 0l.5 4.5h-1l.5-4.5zm-94 9l.5 1.5h-1l.5-1.5zm93 0l.5 1.5h-1l.5-1.5zm-92 4v1-1zm91 0v1-1zm-90 3v1-1zm89 0v1-1zm-88 2v1-1zm87 0v1-1zm-86 2v1-1zm85 0v1-1zm-84 2v1-1zm83 0v1-1zm-82 2l1 2-1-2zm81 0l-1 2 1-2zm-79 3l2 3-2-3zm77 0l-2 3 2-3zm-69 8l2 3-2-3zm61 0l-2 3 2-3zm-57 3l1 2-1-2zm53 0l-1 2 1-2zm-50 2v1-1zm47 0v1-1zm-45 1v1-1zm43 0v1-1zm-41 1v1-1zm39 0v1-1zm-37 1v1-1zm35 0v1-1zm-32 1v1-1zm29 0v1-1zm-26 1l1.5.5-1.5.5v-1zm22 0l1.5.5-1.5.5v-1zm-16 1l4.5.5-4.5.5v-1zm7 0l4.5.5-4.5.5v-1zm-360 1l5.5.5-5.5.5v-1zm8 0l5.5.5-5.5.5v-1zm-13 1l1.5.5-1.5.5v-1zm22 0l1.5.5-1.5.5v-1zm-25 1v1-1zm29 0v1-1zm-32 1v1-1zm35 0v1-1zm-37 1v1-1zm39 0v1-1zm-41 1v1-1zm43 0v1-1zm-45 1v1-1zm47 0v1-1zm-49 1l-1 2 1-2zm51 0l1 2-1-2zm-54 2l-2 3 2-3zm57 0l2 3-2-3zm-65 8l-2 3 2-3zm73 0l2 3-2-3zm-76 4l-1 2 1-2zm79 0l1 2-1-2zm-81 3v1-1zm83 0v1-1zm-84 2v1-1zm85 0v1-1zm-86 2v1-1zm87 0v1-1zm-88 2v1-1zm89 0v1-1zm-90 3v1-1zm91 0v1-1zm-92 3l.5 1.5h-1l.5-1.5zm93 0l.5 1.5h-1l.5-1.5zm-94 5l.5 5.5h-1l.5-5.5zm95 1l.5 4.5h-1l.5-4.5zm-95 7l.5 5.5h-1l.5-5.5zm95 0l.5 4.5h-1l.5-4.5zm-94 9l.5 1.5h-1l.5-1.5zm93 0l.5 1.5h-1l.5-1.5zm-92 4v1-1zm91 0v1-1zm-90 3v1-1zm89 0v1-1zm-88 2v1-1zm87 0v1-1zm-86 2v1-1zm85 0v1-1zm-84 2v1-1zm83 0v1-1zm-82 2l1 2-1-2zm81 0l-1 2 1-2zm-79 3l2 3-2-3zm77 0l-2 3 2-3zm-69 8l2 3-2-3zm61 0l-2 3 2-3zm-57 3l1 2-1-2zm53 0l-1 2 1-2zm-50 2v1-1zm47 0v1-1zm-45 1v1-1zm43 0v1-1zm-41 1v1-1zm39 0v1-1zm-37 1v1-1zm35 0v1-1zm-32 1v1-1zm29 0v1-1zm-26 1l1.5.5-1.5.5v-1zm22 0l1.5.5-1.5.5v-1zm-16 1l4.5.5-4.5.5v-1zm7 0l4.5.5-4.5.5v-1z"/><path fill="#1A1A1A" stroke="#1A1A1A" d="M255.5 16l16 2 11 4q13.4 6.6 22.5 17.5 8.9 10.1 13 25l1 5v21l-3 11-10 18 87.5 86.5 17-10 11-3h10l1-1 1 1 14 1 11 4q13.4 6.6 22.5 17.5 8.9 10.1 13 25l1 5v21q-5.3 25.2-22.5 38.5-7.9 7.1-19 11l-11 3h-9l-1 1-1-1h-10l-8-2-20-10-79.5 82.5-5 6v2l5 8 5 16v21q-5.3 25.2-22.5 38.5-7.9 7.1-19 11l-11 3q-7.5-1.5-11 1l-1-1-14-1-11-4q-13.4-6.6-22.5-17.5-8.9-10.1-13-25l-1-5v-21l1-4.5-59.5-30H132q-3.6 8.4-11.5 14-7.9 7.1-19 11l-11 3q-7.5-1.5-11 1l-1-1-14-1-11-4q-13.4-6.6-22.5-17.5-8.9-10.1-13-25l-1-5v-21q5.3-25.2 22.5-38.5 7.9-7.1 19-11l11-3q7.5 1.5 11-1l1 1h9l8 2 9 4 28.5-42.5-30.5-50.5-15 5q-7.5-1.5-11 1l-1-1-14-1-11-4q-13.4-6.6-22.5-17.5-8.9-10.1-13-25l-1-5v-21q5.3-25.2 22.5-38.5l19-11 11-3h9l1-1 1 1h10l16 5q13.4 6.6 22.5 17.5l7.5 11.5h3L194 95l-1-4.5v-21q5.3-25.2 22.5-38.5l19-11 11-3h9l1-1zM250 32q-14 2-22 9-16 11-20 33l1 18 8 17q11 15 33 19l18-1 17-8q15-11 19-32l-1-18-8-17q-8-12-21-17l-11-3h-13zM74 96q-14 2-22 9-16 11-20 33l1 18 8 17q11 15 33 19l18-1 17-8q15-11 19-32l-1-18-8-17q-8-12-21-17l-11-3H74zm123 13l-55 20 1 5v21l-3 11 38 19h2l35-54v-2q-9-7-14-18-1-3-4-2zm98 21l-17 10-11 3h-10l-1 1-1-1h-9l-8-2-9-4-31 46-5 8v2l11 4 3-5q9-11 23-18l11-4 14-1 1-1q3 3 11 1l11 3q11 4 19 11 10 9 17 23l5 16v11l52 7 1-5 10-18-87-87zm-163 49l-3 6-8 8h-2l1 5 25 40 26-41-36-18h-3zm118 5q-14 2-22 9-16 11-20 33l1 18 8 17q11 15 33 19l18-1 17-8q15-11 19-32l-1-18-8-17q-8-12-21-17l-11-3h-13zm-65 21l-32 48 74 123 8-4 12-3h1v-74l-13-3-19-11q-18-13-23-38v-21l3-11-11-6zm241 3l-9 2-13 7q-16 10-20 33v13l2 9 7 13q11 15 33 19l18-1 17-8q15-11 19-32l-1-18-8-17q-9-12-23-18l-9-2h-13zm-109 40l-1 6-11 19q-14 17-39 22l-2 1v73l14 3q12 5 21 13l84-88-11-19-3-11v-12l-52-7zm-174 19l-22 35v2q10 8 16 20l6 18v21l-3 11 60 29q5-11 14-18l-69-116q1-3-2-2zm-69 37l-9 2-13 7q-16 10-20 33v13l2 9 7 13q11 15 33 19l18-1 17-8q15-11 19-32l-1-18-8-17q-9-12-23-18l-9-2H74zm176 80q-14 2-22 9-16 11-20 33l1 18 8 17q11 15 33 19l18-1 17-8q15-11 19-32l-1-18-8-17q-8-12-21-17l-11-3h-13z"/><path fill="#F6DB40" stroke="#F6DB40" d="M431.5 208l17 3q11.7 4.8 19.5 13.5l9 15 3 17-3 16q-4.8 11.7-13.5 19.5l-15 9-17 3-16-3q-11.7-4.8-19.5-13.5l-9-15-3-17 3-16q4.8-11.7 13.5-19.5l15-9 16-3zm-352 96l17 3q11.7 4.8 19.5 13.5l9 15 3 17-3 16q-4.8 11.7-13.5 19.5l-15 9-17 3-16-3q-11.7-4.8-19.5-13.5l-9-15-3-17 3-16q4.8-11.7 13.5-19.5l15-9 16-3z"/></svg>